<svg width="720" height="1250" viewBox="0 0 720 1250" fill="none" xmlns="http://www.w3.org/2000/svg">
<g clip-path="url(#clip0)">
<rect width="720" height="1250" rx="20" fill="#493381"/>
<path d="M639.793 716.858C526.653 672.561 470.845 544.933 515.142 431.793" stroke="#86FAF3" stroke-width="5" stroke-linecap="round"/>
<path d="M1003.84 713.266C1115.11 556.513 1078.24 339.235 921.488 227.961C764.736 116.687 547.457 153.555 436.183 310.308" stroke="#86FAF3" stroke-width="5" stroke-linecap="round"/>
<path d="M103.356 694.044C2.84362 353.617 197.333 -3.83555 537.76 -104.348" stroke="#86FAF3" stroke-width="5" stroke-linecap="round"/>
<path d="M522.22 35.3947C258.984 144.682 134.184 446.673 243.472 709.909C352.759 973.145 654.75 1097.95 917.986 988.658" stroke="#86FAF3" stroke-width="5" stroke-linecap="round"/>
<path d="M864.891 445.912C855.591 425.297 842.014 406.896 825.06 391.928C808.105 376.961 788.162 365.77 766.553 359.098C744.944 352.427 722.163 350.427 699.722 353.231" stroke="#86FAF3" stroke-width="5" stroke-linecap="round"/>
<path d="M777.626 454.372C762.646 439.131 742.279 430.382 720.912 430.012C699.544 429.642 678.887 437.679 663.388 452.393" stroke="#86FAF3" stroke-width="5" stroke-linecap="round"/>
<circle cx="720" cy="512" r="21" stroke="#86FAF3" stroke-width="5" stroke-linecap="round"/>
<path d="M1304.57 849.5C1118.17 1172.35 705.348 1282.96 382.5 1096.57C59.6525 910.171 -50.9633 497.347 135.433 174.5" stroke="#86FAF3" stroke-width="5" stroke-linecap="round"/>
<path d="M1314 512C1314 840.057 1048.06 1106 720 1106C391.943 1106 126 840.057 126 512" stroke="#86FAF3" stroke-width="5" stroke-linecap="round"/>
<path d="M1411 512C1411 130.371 1101.63 -179 720 -179" stroke="#86A0FA" stroke-width="5" stroke-linecap="round"/>
<path d="M1439 512C1439 909.093 1117.09 1231 720 1231C322.907 1231 1 909.093 1 512" stroke="#86FAF3" stroke-width="5" stroke-linecap="round"/>
<path d="M1115.34 278.793C986.546 60.4517 705.135 -12.1389 486.793 116.658C268.452 245.454 195.861 526.865 324.658 745.207" stroke="#86FAF3" stroke-width="5" stroke-linecap="round"/>
<path d="M1051.82 1074.51C741.151 1257.77 340.746 1154.48 157.489 843.817C-25.769 533.151 77.5162 132.746 388.183 -50.5112" stroke="#7B8085" stroke-opacity="0.5" stroke-width="5" stroke-linecap="round"/>
<path d="M908.224 831.086C731.998 935.04 504.867 876.451 400.914 700.224C296.96 523.998 355.549 296.867 531.776 192.914" stroke="#86A0FA" stroke-width="5" stroke-linecap="round"/>
<path d="M1171.34 245.832C1318.44 495.191 1235.53 816.578 986.174 963.671" stroke="#86A0FA" stroke-width="7.07495" stroke-linecap="round"/>
<path d="M876.532 419.664C927.528 506.114 898.787 617.536 812.336 668.532C725.886 719.528 614.464 690.787 563.468 604.336" stroke="#7B8085" stroke-opacity="0.5" stroke-width="5" stroke-linecap="round"/>
<path d="M929.295 388.54C997.481 504.13 959.051 653.11 843.46 721.295C727.87 789.481 578.89 751.051 510.705 635.46" stroke="#86FAF3" stroke-width="5" stroke-linecap="round"/>
<path d="M868.191 763.219C729.446 845.063 550.624 798.935 468.781 660.191C386.937 521.446 433.065 342.624 571.809 260.781" stroke="#86A0FA" stroke-width="5" stroke-linecap="round"/>
<path d="M1439 512C1439 114.907 1117.09 -207 720 -207C322.907 -207 1 114.907 1 512" stroke="#86A0FA" stroke-width="5" stroke-linecap="round"/>
<path d="M720 1078C407.407 1078 154 824.593 154 512C154 199.407 407.407 -54 720 -54" stroke="#7B8085" stroke-opacity="0.5" stroke-width="5" stroke-linecap="round"/>
<path d="M869.08 -44.3732C1176.36 37.9613 1358.71 353.803 1276.37 661.08C1194.04 968.356 878.197 1150.71 570.92 1068.37" stroke="#7B8085" stroke-opacity="0.5" stroke-width="5" stroke-linecap="round"/>
<path d="M869.08 -44.3732C1176.36 37.9613 1358.71 353.803 1276.37 661.08C1194.04 968.356 878.197 1150.71 570.92 1068.37" stroke="#7B8085" stroke-opacity="0.5" stroke-width="5" stroke-linecap="round"/>
<path d="M230.014 283.31C355.978 12.949 677.263 -104.108 947.625 21.8564C1217.99 147.821 1335.04 469.106 1209.08 739.468" stroke="#86FAF3" stroke-width="5" stroke-linecap="round"/>
<path d="M855.75 746.76C985.128 672.063 1029.46 506.628 954.76 377.25C880.063 247.872 714.628 203.544 585.25 278.24" stroke="#86FAF3" stroke-width="5" stroke-linecap="round"/>
<path d="M1131 512.5C1131 739.213 947.213 923 720.5 923C493.787 923 310 739.213 310 512.5" stroke="#86FAF3" stroke-width="5" stroke-linecap="round"/>
<path d="M965.053 1044.97C670.477 1180.4 321.889 1051.38 186.461 756.807" stroke="#7B8085" stroke-opacity="0.5" stroke-width="5" stroke-linecap="round"/>
<path d="M171.32 -26.5571C468.956 -329.782 956.051 -334.313 1259.28 -36.6767" stroke="#7B8085" stroke-opacity="0.5" stroke-width="5" stroke-linecap="round"/>
<path d="M856.164 808.164C692.669 883.329 499.198 811.723 424.033 648.229C348.868 484.735 420.473 291.263 583.967 216.098" stroke="#7B8085" stroke-opacity="0.5" stroke-width="5" stroke-linecap="round"/>
<path d="M634.374 326.34C736.893 279.208 858.208 324.107 905.34 426.626" stroke="#7B8085" stroke-opacity="0.5" stroke-width="5" stroke-linecap="round"/>
<path d="M744.731 565.364C774.002 551.908 786.821 517.27 773.365 487.999" stroke="#7B8085" stroke-opacity="0.5" stroke-width="5" stroke-linecap="round"/>
<path d="M719.563 627C655.774 627.035 604.035 575.352 604 511.563" stroke="#86A0FA" stroke-width="5" stroke-linecap="round"/>
<path d="M709.998 546.176C690.96 541.075 679.663 521.507 684.764 502.47C689.865 483.433 709.433 472.135 728.47 477.236" stroke="#86A0FA" stroke-width="5" stroke-linecap="round"/>
<path d="M319.644 329.272C420.677 108.218 681.779 10.921 902.833 111.953C1123.89 212.985 1221.18 474.088 1120.15 695.142" stroke="#86A0FA" stroke-width="5" stroke-linecap="round"/>
<path d="M548.299 -82.4627C876.613 -177.083 1219.47 12.3626 1314.09 340.677C1408.71 668.99 1219.26 1011.85 890.951 1106.47" stroke="#86A0FA" stroke-width="5" stroke-linecap="round"/>
<path d="M694.571 424.046C645.586 438.164 617.32 489.319 631.438 538.304C645.555 587.29 696.71 615.555 745.696 601.438" stroke="#86A0FA" stroke-width="5" stroke-linecap="round"/>
<path d="M719.731 995.133C452.918 995.088 236.66 778.757 236.705 511.945C236.75 245.132 453.08 28.8738 719.893 28.9187" stroke="#86A0FA" stroke-width="5" stroke-linecap="round"/>
<path d="M913.069 378.58C985.487 483.947 957.606 628.875 850.795 702.285" stroke="#354389" stroke-width="5" stroke-linecap="round"/>
<path d="M1091.89 -226.589C1494.25 -23.7891 1653.77 471.255 1448.19 879.124C1242.62 1286.99 749.788 1453.23 347.432 1250.43" stroke="#354389" stroke-width="5" stroke-linecap="round"/>
<path d="M1038.71 292.282C1158.08 465.963 1112.12 704.853 936.059 825.858C759.999 946.862 520.506 904.159 401.137 730.478" stroke="#354389" stroke-width="5" stroke-linecap="round"/>
<path d="M1255 386.688C1186.44 95.2154 891.349 -84.7353 595.884 -15.2433" stroke="#354389" stroke-width="5" stroke-linecap="round"/>
<path d="M889 512C889 477.068 878.175 442.993 858.015 414.466C837.854 385.938 809.349 364.358 776.421 352.696C743.493 341.034 707.76 339.862 674.138 349.342C640.516 358.822 610.659 378.487 588.672 405.633" stroke="#86A0FA" stroke-width="5" stroke-linecap="round"/>
</g>
<defs>
<clipPath id="clip0">
<rect width="720" height="1250" rx="20" fill="white"/>
</clipPath>
</defs>
</svg>
