<svg width="129" height="56" viewBox="0 0 129 56" fill="none" xmlns="http://www.w3.org/2000/svg">
<rect x="2.59375" y="3.35156" width="12" height="50" rx="6" fill="#6DC6B3"/>
<rect x="81.0215" y="0.279297" width="12" height="66.3797" rx="6" transform="rotate(45 81.0215 0.279297)" fill="#6DC6B3"/>
<rect x="25.75" y="33.9146" width="12" height="35.886" rx="6" transform="rotate(-135 25.75 33.9146)" fill="#6DC6B3"/>
<rect y="8.94531" width="12.4968" height="35.7971" rx="6.24842" transform="rotate(-45 0 8.94531)" fill="#00ADB5"/>
<rect x="34.2578" y="8.50049" width="12" height="66.9542" rx="6" transform="rotate(-45 34.2578 8.50049)" fill="#00ADB5"/>
<rect x="98.0791" y="38.6338" width="12" height="42.6363" rx="6" transform="rotate(-135 98.0791 38.6338)" fill="#6DC6B3"/>
<rect x="75.5938" y="14.3516" width="12" height="50" rx="6" transform="rotate(-90 75.5938 14.3516)" fill="#00ADB5"/>
<rect x="89.5938" y="30.188" width="12.4968" height="35.7971" rx="6.24842" transform="rotate(-45 89.5938 30.188)" fill="#00ADB5"/>
</svg>
