<svg width="129" height="56" viewBox="0 0 129 56" fill="none" xmlns="http://www.w3.org/2000/svg">
<rect x="2.59375" y="3.35156" width="12" height="50" rx="6" fill="url(#paint0_linear)"/>
<rect x="81.0215" y="0.279297" width="12" height="66.3797" rx="6" transform="rotate(45 81.0215 0.279297)" fill="url(#paint1_linear)"/>
<rect x="25.75" y="33.9146" width="12" height="35.886" rx="6" transform="rotate(-135 25.75 33.9146)" fill="url(#paint2_linear)"/>
<rect y="8.94556" width="12.4968" height="35.7971" rx="6.24842" transform="rotate(-45 0 8.94556)" fill="url(#paint3_linear)"/>
<rect x="34.2578" y="8.50049" width="12" height="66.9542" rx="6" transform="rotate(-45 34.2578 8.50049)" fill="url(#paint4_linear)"/>
<rect x="98.0791" y="38.6338" width="12" height="42.6363" rx="6" transform="rotate(-135 98.0791 38.6338)" fill="url(#paint5_linear)"/>
<rect x="75.5938" y="14.3516" width="12" height="50" rx="6" transform="rotate(-90 75.5938 14.3516)" fill="url(#paint6_linear)"/>
<rect x="89.5938" y="30.1882" width="12.4968" height="35.7971" rx="6.24842" transform="rotate(-45 89.5938 30.1882)" fill="url(#paint7_linear)"/>
<defs>
<linearGradient id="paint0_linear" x1="2.59375" y1="28.3516" x2="14.5938" y2="28.3516" gradientUnits="userSpaceOnUse">
<stop stop-color="#6DC6B3"/>
<stop offset="1" stop-color="#00ADB5"/>
</linearGradient>
<linearGradient id="paint1_linear" x1="81.0215" y1="33.4691" x2="93.0215" y2="33.4691" gradientUnits="userSpaceOnUse">
<stop stop-color="#6DC6B3"/>
<stop offset="1" stop-color="#00ADB5"/>
</linearGradient>
<linearGradient id="paint2_linear" x1="25.75" y1="51.8576" x2="37.75" y2="51.8576" gradientUnits="userSpaceOnUse">
<stop stop-color="#6DC6B3"/>
<stop offset="1" stop-color="#00ADB5"/>
</linearGradient>
<linearGradient id="paint3_linear" x1="0" y1="26.8441" x2="12.4968" y2="26.8441" gradientUnits="userSpaceOnUse">
<stop stop-color="#00ADB5"/>
<stop offset="1" stop-color="#6DC6B3"/>
</linearGradient>
<linearGradient id="paint4_linear" x1="34.2578" y1="41.9776" x2="46.2578" y2="41.9776" gradientUnits="userSpaceOnUse">
<stop stop-color="#00ADB5"/>
<stop offset="1" stop-color="#6DC6B3"/>
</linearGradient>
<linearGradient id="paint5_linear" x1="98.0791" y1="59.952" x2="110.079" y2="59.952" gradientUnits="userSpaceOnUse">
<stop stop-color="#6DC6B3"/>
<stop offset="1" stop-color="#00ADB5"/>
</linearGradient>
<linearGradient id="paint6_linear" x1="75.5938" y1="39.3516" x2="87.5937" y2="39.3516" gradientUnits="userSpaceOnUse">
<stop stop-color="#00ADB5"/>
<stop offset="1" stop-color="#6DC6B3"/>
</linearGradient>
<linearGradient id="paint7_linear" x1="89.5937" y1="48.0868" x2="102.091" y2="48.0868" gradientUnits="userSpaceOnUse">
<stop stop-color="#00ADB5"/>
<stop offset="1" stop-color="#6DC6B3"/>
</linearGradient>
</defs>
</svg>
